<?xml version="1.0" encoding="UTF-8" standalone="no"?>
<svg
   xmlns:dc="http://purl.org/dc/elements/1.1/"
   xmlns:cc="http://creativecommons.org/ns#"
   xmlns:rdf="http://www.w3.org/1999/02/22-rdf-syntax-ns#"
   xmlns:svg="http://www.w3.org/2000/svg"
   xmlns="http://www.w3.org/2000/svg"
   xmlns:sodipodi="http://sodipodi.sourceforge.net/DTD/sodipodi-0.dtd"
   xmlns:inkscape="http://www.inkscape.org/namespaces/inkscape"
   version="1.1"
   id="svg80"
   width="16"
   height="16"
   viewBox="0 0 96 96"
   sodipodi:docname="Acquisition_range.svg"
   inkscape:version="1.0.2 (e86c870879, 2021-01-15)">
  <metadata
     id="metadata86">
    <rdf:RDF>
      <cc:Work
         rdf:about="">
        <dc:format>image/svg+xml</dc:format>
        <dc:type
           rdf:resource="http://purl.org/dc/dcmitype/StillImage" />
        <dc:title></dc:title>
      </cc:Work>
    </rdf:RDF>
  </metadata>
  <defs
     id="defs84" />
  <sodipodi:namedview
     pagecolor="#ffffff"
     bordercolor="#666666"
     borderopacity="1"
     objecttolerance="10"
     gridtolerance="10"
     guidetolerance="10"
     inkscape:pageopacity="0"
     inkscape:pageshadow="2"
     inkscape:window-width="1556"
     inkscape:window-height="900"
     id="namedview82"
     showgrid="false"
     inkscape:snap-to-guides="true"
     inkscape:zoom="20.682873"
     inkscape:cx="27.988438"
     inkscape:cy="17.294518"
     inkscape:window-x="0"
     inkscape:window-y="0"
     inkscape:window-maximized="1"
     inkscape:current-layer="g88"
     inkscape:document-rotation="0"
     scale-x="1" />
  <g
     inkscape:groupmode="layer"
     inkscape:label="Image"
     id="g88"
     style="display:inline">
    <path
       style="fill:#ffffff;stroke-width:1.33333"
       d="M 34.35206,89.339049 C 24.149185,86.26692 10.971437,73.40522 7.4560355,63.088084 4.6428283,54.831776 4.7360348,40.975376 7.6600719,32.755348 10.578123,24.552149 20.823929,13.129937 28.672184,9.3306621 38.083587,4.7746808 52.298516,4.256986 63.865132,8.0489668 c 8.826733,2.8937422 9.561671,2.9464112 11.876899,0.8511584 1.357369,-1.2284023 3.053,-2.2334585 3.768068,-2.2334585 1.71648,0 9.823234,8.4023133 9.823234,10.1813733 0,0.763264 -7.869692,6.985584 -17.488202,13.827376 -15.042552,10.699995 -17.662272,12.12858 -18.73292,10.215437 -1.903032,-3.400529 -9.800947,-2.928596 -12.369939,0.739155 -7.427468,10.604197 4.547856,21.264441 16.781181,14.938344 5.627302,-2.909991 6.23496,-1.454971 1.408171,3.371819 C 55.453029,63.418765 53.883573,64 47.969231,64 41.897033,64 40.521315,63.454648 36.533333,59.466667 32.579744,55.513077 32,54.075859 32,48.228269 c 0,-5.830593 0.608171,-7.349913 4.663196,-11.649492 4.646851,-4.927097 4.693931,-4.941961 13.431087,-4.240626 7.100377,0.56995 8.917289,0.314472 9.553444,-1.343318 1.253002,-3.265274 -3.530607,-5.6615 -11.302114,-5.6615 -8.250434,0 -13.276233,2.218544 -18.151725,8.012736 -7.625125,9.061947 -7.294308,20.937334 0.841387,30.203378 11.379274,12.960278 30.45305,10.875341 40.622106,-4.440364 2.610772,-3.932108 5.042528,-6.853618 5.403902,-6.492244 1.636198,1.636198 -4.399476,13.012878 -9.20889,17.357894 -6.773664,6.119599 -10.142065,7.3586 -20.005406,7.3586 -17.112575,0 -29.18032,-12.131025 -29.18032,-29.333333 0,-12.600652 6.464844,-22.601223 17.623841,-27.262603 6.317344,-2.638905 17.063929,-2.654801 23.335152,-0.03452 4.298089,1.795856 5.1058,1.803755 6.842637,0.06692 C 73.843405,13.394689 44.828209,8.8458827 31.512048,15.289592 13.82328,23.849213 6.3488904,46.422496 15.207865,64.529591 c 3.605196,7.368753 9.383291,12.965108 18.125468,17.555362 6.078911,3.191852 22.544704,3.323919 29.638447,0.23772 7.531384,-3.2766 18.147319,-13.990804 22.757016,-22.96767 4.810117,-9.367167 6.443731,-7.248326 2.824065,3.662892 -3.127893,9.428806 -15.811328,22.261949 -25.123713,25.420258 -6.924753,2.34854 -22.651096,2.83579 -29.077088,0.900896 z"
       id="path92" />
  </g>
</svg>
